<?xml version="1.0" encoding="UTF-8" standalone="no"?>
<!DOCTYPE svg PUBLIC "-//W3C//DTD SVG 1.1//EN"
 "http://www.w3.org/Graphics/SVG/1.1/DTD/svg11.dtd">
<!-- Generated by graphviz version 2.40.1 (20161225.0304)
 -->
<!-- Title: scheduling_gaps Pages: 1 -->
<svg width="537pt" height="134pt"
 viewBox="0.00 0.00 536.53 133.60" xmlns="http://www.w3.org/2000/svg" xmlns:xlink="http://www.w3.org/1999/xlink">
<g id="graph0" class="graph" transform="scale(1 1) rotate(0) translate(4 129.6)">
<title>scheduling_gaps</title>
<polygon fill="#ffffff" stroke="transparent" points="-4,4 -4,-129.6 532.528,-129.6 532.528,4 -4,4"/>
<!-- A -->
<g id="node1" class="node">
<title>A</title>
<polygon fill="#3498db" stroke="#000000" stroke-width="2" points="163.0504,-125.5004 -.0168,-125.5004 -.0168,-80.8996 163.0504,-80.8996 163.0504,-125.5004"/>
<text text-anchor="middle" x="81.5168" y="-99" font-family="Helvetica,sans-Serif" font-size="14.00" fill="#ffffff">Manual Scheduling</text>
</g>
<!-- D -->
<g id="node4" class="node">
<title>D</title>
<polygon fill="#ff6b6b" stroke="#000000" stroke-width="2" points="142.0294,-44.7004 21.0042,-44.7004 21.0042,-.0996 142.0294,-.0996 142.0294,-44.7004"/>
<text text-anchor="middle" x="81.5168" y="-18.2" font-family="Helvetica,sans-Serif" font-size="14.00" fill="#ffffff">Poor Quality</text>
</g>
<!-- A&#45;&gt;D -->
<g id="edge1" class="edge">
<title>A&#45;&gt;D</title>
<path fill="none" stroke="#000000" d="M81.5168,-80.6927C81.5168,-72.7253 81.5168,-63.5944 81.5168,-54.9603"/>
<polygon fill="#000000" stroke="#000000" points="85.0169,-54.7866 81.5168,-44.7866 78.0169,-54.7866 85.0169,-54.7866"/>
</g>
<!-- B -->
<g id="node2" class="node">
<title>B</title>
<polygon fill="#3498db" stroke="#000000" stroke-width="2" points="340.4158,-125.5004 180.6178,-125.5004 180.6178,-80.8996 340.4158,-80.8996 340.4158,-125.5004"/>
<text text-anchor="middle" x="260.5168" y="-99" font-family="Helvetica,sans-Serif" font-size="14.00" fill="#ffffff">Basic Optimization</text>
</g>
<!-- E -->
<g id="node5" class="node">
<title>E</title>
<polygon fill="#ff6b6b" stroke="#000000" stroke-width="2" points="345.5504,-44.7004 175.4832,-44.7004 175.4832,-.0996 345.5504,-.0996 345.5504,-44.7004"/>
<text text-anchor="middle" x="260.5168" y="-18.2" font-family="Helvetica,sans-Serif" font-size="14.00" fill="#ffffff">Ignores Preferences</text>
</g>
<!-- B&#45;&gt;E -->
<g id="edge2" class="edge">
<title>B&#45;&gt;E</title>
<path fill="none" stroke="#000000" d="M260.5168,-80.6927C260.5168,-72.7253 260.5168,-63.5944 260.5168,-54.9603"/>
<polygon fill="#000000" stroke="#000000" points="264.0169,-54.7866 260.5168,-44.7866 257.0169,-54.7866 264.0169,-54.7866"/>
</g>
<!-- C -->
<g id="node3" class="node">
<title>C</title>
<polygon fill="#3498db" stroke="#000000" stroke-width="2" points="528.5392,-125.5004 358.4944,-125.5004 358.4944,-80.8996 528.5392,-80.8996 528.5392,-125.5004"/>
<text text-anchor="middle" x="443.5168" y="-99" font-family="Helvetica,sans-Serif" font-size="14.00" fill="#ffffff">Preference Systems</text>
</g>
<!-- F -->
<g id="node6" class="node">
<title>F</title>
<polygon fill="#ff6b6b" stroke="#000000" stroke-width="2" points="522.8734,-44.7004 364.1602,-44.7004 364.1602,-.0996 522.8734,-.0996 522.8734,-44.7004"/>
<text text-anchor="middle" x="443.5168" y="-18.2" font-family="Helvetica,sans-Serif" font-size="14.00" fill="#ffffff">Not Strategy&#45;proof</text>
</g>
<!-- C&#45;&gt;F -->
<g id="edge3" class="edge">
<title>C&#45;&gt;F</title>
<path fill="none" stroke="#000000" d="M443.5168,-80.6927C443.5168,-72.7253 443.5168,-63.5944 443.5168,-54.9603"/>
<polygon fill="#000000" stroke="#000000" points="447.0169,-54.7866 443.5168,-44.7866 440.0169,-54.7866 447.0169,-54.7866"/>
</g>
</g>
</svg>

